<svg width="512" height="512" viewBox="0 0 512 512" fill="none" xmlns="http://www.w3.org/2000/svg">
    <path d="M0 8C0 3.58172 3.58172 0 8 0H504C508.418 0 512 3.58172 512 8V504C512 508.418 508.418 512 504 512H8C3.58172 512 0 508.418 0 504V8Z" fill="white"/>
    <svg xmlns="http://www.w3.org/2000/svg" viewBox="0 0 73 73" shape-rendering="crispEdges" height="512" width="512" x="0" y="0"><path stroke="#000000" d="M4 4.5h7m1 0h1m3 0h4m1 0h3m1 0h1m1 0h1m5 0h4m3 0h3m5 0h1m3 0h2m1 0h2m2 0h1m2 0h7M4 5.5h1m5 0h1m1 0h1m1 0h1m1 0h2m5 0h1m7 0h3m1 0h1m2 0h2m3 0h1m4 0h3m1 0h1m1 0h2m1 0h1m2 0h1m1 0h1m5 0h1M4 6.5h1m1 0h3m1 0h1m1 0h4m2 0h1m1 0h1m2 0h1m1 0h3m4 0h1m2 0h1m1 0h4m1 0h4m3 0h1m1 0h1m4 0h1m1 0h1m1 0h1m1 0h1m1 0h3m1 0h1M4 7.5h1m1 0h3m1 0h1m3 0h4m2 0h2m1 0h1m1 0h2m3 0h1m1 0h2m3 0h1m1 0h4m1 0h1m1 0h1m1 0h2m2 0h1m1 0h2m2 0h2m2 0h1m1 0h3m1 0h1M4 8.5h1m1 0h3m1 0h1m2 0h6m3 0h2m2 0h1m3 0h1m1 0h1m1 0h6m1 0h2m1 0h1m1 0h1m1 0h2m1 0h2m2 0h3m2 0h1m1 0h1m1 0h3m1 0h1M4 9.5h1m5 0h1m1 0h1m3 0h1m2 0h10m2 0h4m3 0h1m4 0h5m1 0h3m1 0h2m3 0h1m3 0h1m5 0h1M4 10.5h7m1 0h1m1 0h1m1 0h1m1 0h1m1 0h1m1 0h1m1 0h1m1 0h1m1 0h1m1 0h1m1 0h1m1 0h1m1 0h1m1 0h1m1 0h1m1 0h1m1 0h1m1 0h1m1 0h1m1 0h1m1 0h1m1 0h1m1 0h1m1 0h1m1 0h1m1 0h7M12 11.5h2m3 0h3m1 0h1m1 0h1m2 0h2m1 0h1m2 0h3m3 0h1m3 0h1m1 0h1m1 0h1m3 0h1m5 0h1m1 0h1M6 12.5h3m1 0h1m1 0h3m3 0h6m5 0h1m1 0h2m1 0h6m2 0h1m4 0h2m2 0h3m1 0h1m1 0h2m1 0h4m2 0h3M4 13.5h1m2 0h3m1 0h1m2 0h1m1 0h2m1 0h1m1 0h2m1 0h2m3 0h3m1 0h2m2 0h1m1 0h1m3 0h2m1 0h1m1 0h2m1 0h1m1 0h1m4 0h1m2 0h1m1 0h6M4 14.5h1m1 0h1m3 0h1m2 0h1m1 0h4m4 0h2m3 0h1m1 0h1m3 0h1m1 0h4m6 0h3m1 0h2m2 0h6m2 0h1m2 0h2M5 15.5h2m2 0h1m1 0h1m1 0h4m3 0h3m1 0h1m1 0h3m2 0h1m3 0h2m1 0h1m4 0h1m3 0h3m1 0h1m1 0h4m2 0h1m1 0h1m5 0h1M4 16.5h3m1 0h1m1 0h3m1 0h2m1 0h1m1 0h2m3 0h5m3 0h1m1 0h1m2 0h1m2 0h5m5 0h1m1 0h1m1 0h1m2 0h1m2 0h1m2 0h4m1 0h1M6 17.5h1m2 0h1m2 0h1m3 0h1m8 0h2m1 0h1m5 0h1m1 0h4m1 0h3m1 0h1m1 0h3m1 0h1m1 0h3m1 0h2m6 0h1m2 0h1M4 18.5h1m1 0h5m2 0h2m2 0h3m1 0h3m2 0h3m1 0h3m1 0h1m2 0h1m2 0h2m1 0h1m2 0h1m3 0h1m1 0h1m5 0h1m1 0h6M6 19.5h2m1 0h1m3 0h1m1 0h1m2 0h1m4 0h1m1 0h4m1 0h2m2 0h1m2 0h2m1 0h3m3 0h4m6 0h4m1 0h3M4 20.5h1m1 0h2m1 0h3m6 0h1m1 0h2m1 0h2m2 0h3m4 0h2m1 0h2m2 0h1m1 0h1m1 0h2m4 0h4m2 0h4m2 0h2m1 0h1M6 21.5h2m1 0h1m1 0h2m3 0h2m2 0h1m1 0h6m2 0h5m1 0h2m1 0h3m3 0h1m3 0h1m1 0h3m1 0h1m1 0h2m4 0h3M7 22.5h1m1 0h2m2 0h4m2 0h2m2 0h1m1 0h1m1 0h1m2 0h1m4 0h5m4 0h1m1 0h1m1 0h1m4 0h2m2 0h1m1 0h1m1 0h5m1 0h2M5 23.5h1m1 0h2m2 0h2m1 0h1m3 0h2m5 0h7m3 0h1m1 0h2m2 0h1m4 0h3m4 0h5m1 0h1m3 0h1m1 0h1m1 0h1M5 24.5h2m3 0h1m1 0h4m1 0h1m1 0h1m3 0h1m7 0h1m1 0h1m1 0h1m3 0h2m2 0h1m2 0h1m2 0h1m1 0h4m5 0h5m1 0h2M6 25.5h4m2 0h3m1 0h2m2 0h6m1 0h2m2 0h1m1 0h1m1 0h5m6 0h2m4 0h1m4 0h2m2 0h1m1 0h3m2 0h1M4 26.5h3m3 0h1m1 0h2m1 0h3m1 0h5m1 0h1m2 0h1m4 0h1m2 0h1m1 0h1m1 0h3m1 0h1m2 0h1m1 0h4m1 0h1m1 0h2m1 0h2m1 0h3m1 0h2M5 27.5h1m3 0h1m1 0h1m1 0h1m1 0h1m1 0h6m1 0h3m3 0h1m4 0h8m4 0h1m7 0h3m1 0h1m7 0h2M5 28.5h2m1 0h1m1 0h1m1 0h2m5 0h1m1 0h1m7 0h1m1 0h1m4 0h1m1 0h2m1 0h3m1 0h2m4 0h4m2 0h2m1 0h2m1 0h2m1 0h2M6 29.5h1m2 0h1m2 0h1m3 0h1m2 0h1m1 0h1m3 0h1m1 0h1m5 0h1m1 0h2m2 0h2m1 0h2m2 0h2m3 0h3m1 0h1m1 0h3m1 0h1m2 0h2m1 0h2M6 30.5h2m1 0h2m1 0h2m4 0h1m1 0h1m1 0h1m2 0h1m2 0h1m1 0h1m2 0h3m1 0h3m1 0h1m3 0h1m4 0h3m1 0h2m5 0h1m2 0h1m2 0h1M4 31.5h3m1 0h2m2 0h2m2 0h3m1 0h1m1 0h2m3 0h3m5 0h1m4 0h1m1 0h2m1 0h2m1 0h1m3 0h2m3 0h1m3 0h2m2 0h1m1 0h2M7 32.5h1m2 0h1m1 0h5m1 0h1m1 0h1m1 0h1m1 0h8m2 0h2m1 0h2m1 0h1m3 0h1m2 0h1m3 0h1m5 0h1m1 0h3m2 0h1m1 0h1M4 33.5h1m2 0h1m3 0h2m2 0h1m1 0h1m1 0h1m1 0h3m2 0h1m1 0h1m2 0h1m1 0h2m3 0h4m1 0h1m1 0h2m1 0h1m4 0h1m4 0h1m8 0h2M4 34.5h2m1 0h8m1 0h3m1 0h2m2 0h1m2 0h1m2 0h2m2 0h6m1 0h2m1 0h1m1 0h1m2 0h3m1 0h2m5 0h7M6 35.5h1m1 0h1m3 0h2m2 0h1m7 0h1m1 0h2m1 0h6m3 0h1m2 0h1m3 0h6m2 0h1m3 0h1m2 0h1m3 0h1M6 36.5h3m1 0h1m1 0h1m4 0h3m2 0h2m7 0h2m1 0h1m1 0h1m1 0h1m1 0h3m2 0h2m2 0h5m1 0h1m1 0h4m1 0h1m1 0h4M4 37.5h1m1 0h1m1 0h1m3 0h1m2 0h1m2 0h1m4 0h2m3 0h3m1 0h1m1 0h1m3 0h2m1 0h1m4 0h4m1 0h1m1 0h1m4 0h3m3 0h3m1 0h1M8 38.5h7m2 0h1m2 0h2m1 0h1m1 0h1m5 0h2m1 0h6m2 0h1m3 0h1m2 0h7m1 0h1m2 0h6m1 0h1M4 39.5h1m1 0h1m2 0h1m2 0h1m5 0h2m3 0h2m3 0h4m1 0h1m2 0h2m8 0h4m6 0h5m1 0h1m2 0h1m1 0h1M4 40.5h1m1 0h2m1 0h2m3 0h1m1 0h1m1 0h1m1 0h10m2 0h3m2 0h3m1 0h2m1 0h1m1 0h1m3 0h1m1 0h1m2 0h1m1 0h2m1 0h1m1 0h2m2 0h3M4 41.5h1m1 0h1m6 0h3m1 0h1m2 0h1m2 0h1m1 0h2m1 0h1m1 0h3m2 0h1m1 0h2m1 0h1m1 0h1m1 0h1m1 0h2m4 0h1m3 0h1m1 0h1m1 0h1m1 0h3m3 0h1M6 42.5h2m1 0h2m2 0h1m1 0h1m1 0h1m2 0h1m4 0h1m1 0h3m1 0h1m1 0h1m2 0h2m5 0h2m1 0h1m2 0h7m5 0h1m1 0h3m1 0h1M6 43.5h1m1 0h1m2 0h1m1 0h4m1 0h1m3 0h3m1 0h1m2 0h1m1 0h1m2 0h1m1 0h2m1 0h2m1 0h1m1 0h1m2 0h2m2 0h1m3 0h3m1 0h7m1 0h2M5 44.5h1m1 0h8m6 0h1m1 0h2m4 0h1m3 0h2m3 0h1m1 0h4m2 0h1m2 0h1m1 0h2m1 0h1m2 0h1m2 0h1m1 0h1m3 0h2M5 45.5h4m2 0h6m2 0h2m2 0h2m3 0h2m3 0h4m1 0h5m1 0h2m1 0h3m1 0h2m2 0h1m1 0h4m2 0h2m2 0h2M7 46.5h1m2 0h1m2 0h1m1 0h1m2 0h1m1 0h1m4 0h2m7 0h3m1 0h3m2 0h2m5 0h6m3 0h1M6 47.5h4m1 0h2m5 0h3m3 0h1m2 0h1m2 0h1m1 0h1m1 0h1m1 0h5m2 0h1m4 0h1m2 0h1m1 0h2m1 0h2m1 0h1m1 0h5m2 0h1M7 48.5h1m2 0h1m1 0h1m1 0h1m1 0h1m1 0h1m4 0h1m1 0h3m2 0h1m2 0h8m2 0h5m1 0h1m2 0h3m2 0h2m2 0h1m4 0h1M4 49.5h2m3 0h1m2 0h1m1 0h1m2 0h1m1 0h2m1 0h2m1 0h1m1 0h3m2 0h1m1 0h1m2 0h1m2 0h2m1 0h1m2 0h1m4 0h3m2 0h1m1 0h1m2 0h4m3 0h1M7 50.5h1m2 0h2m1 0h3m3 0h2m1 0h3m1 0h1m2 0h1m4 0h1m1 0h1m2 0h1m3 0h1m1 0h3m1 0h2m2 0h2m2 0h1m5 0h4M7 51.5h1m1 0h1m3 0h2m1 0h2m3 0h1m2 0h3m1 0h1m2 0h1m3 0h2m2 0h2m1 0h2m1 0h1m1 0h2m1 0h1m3 0h4m2 0h3m1 0h1m3 0h1M4 52.5h2m1 0h1m1 0h4m2 0h3m7 0h2m1 0h2m3 0h1m6 0h2m3 0h2m3 0h1m1 0h2m3 0h3m1 0h3m1 0h2m1 0h1M4 53.5h2m1 0h1m7 0h2m3 0h2m1 0h1m2 0h3m2 0h1m1 0h1m5 0h5m4 0h1m4 0h1m4 0h4m2 0h5M4 54.5h2m4 0h1m1 0h1m1 0h2m2 0h1m1 0h1m1 0h1m1 0h2m4 0h3m2 0h1m1 0h6m2 0h2m2 0h4m1 0h1m1 0h2m1 0h1m5 0h3M6 55.5h2m1 0h1m1 0h1m1 0h4m3 0h2m1 0h2m1 0h4m1 0h1m3 0h1m3 0h3m1 0h1m2 0h1m1 0h1m4 0h1m2 0h2m1 0h2m1 0h1m1 0h2m1 0h1M4 56.5h2m1 0h5m1 0h2m3 0h1m1 0h5m1 0h3m1 0h2m3 0h1m1 0h1m2 0h1m3 0h3m2 0h1m2 0h2m1 0h1m7 0h1m1 0h2M6 57.5h4m1 0h1m3 0h1m1 0h1m2 0h1m1 0h3m1 0h2m2 0h1m2 0h1m2 0h1m1 0h2m4 0h1m1 0h3m8 0h1m1 0h4m1 0h5M6 58.5h2m1 0h2m1 0h1m1 0h1m1 0h2m3 0h2m1 0h1m1 0h1m1 0h1m3 0h2m4 0h1m5 0h2m1 0h10m1 0h1m2 0h1m1 0h4M4 59.5h1m2 0h1m4 0h1m1 0h1m2 0h1m1 0h1m1 0h1m1 0h1m1 0h3m3 0h2m1 0h2m4 0h1m1 0h1m2 0h5m1 0h1m3 0h2m1 0h3m1 0h1m1 0h2M5 60.5h2m1 0h1m1 0h1m1 0h2m1 0h5m1 0h1m2 0h1m2 0h5m1 0h6m3 0h1m1 0h2m1 0h1m2 0h4m6 0h7M12 61.5h1m1 0h2m3 0h1m1 0h2m2 0h1m6 0h1m1 0h1m3 0h1m2 0h2m5 0h1m3 0h1m2 0h6m3 0h3m1 0h1M4 62.5h7m2 0h4m2 0h1m4 0h5m2 0h2m1 0h1m1 0h1m1 0h2m1 0h1m1 0h1m1 0h6m1 0h2m2 0h1m2 0h2m1 0h1m1 0h1m1 0h1M4 63.5h1m5 0h1m2 0h1m1 0h1m2 0h2m2 0h1m4 0h2m2 0h1m1 0h2m3 0h4m2 0h1m3 0h1m1 0h1m2 0h1m2 0h1m3 0h1m3 0h2m2 0h1M4 64.5h1m1 0h3m1 0h1m1 0h3m1 0h1m1 0h1m1 0h2m1 0h1m1 0h1m3 0h4m1 0h5m3 0h1m1 0h1m2 0h1m1 0h4m5 0h1m1 0h5m1 0h1m1 0h1M4 65.5h1m1 0h3m1 0h1m1 0h1m3 0h5m2 0h1m1 0h4m3 0h1m2 0h1m3 0h3m2 0h1m1 0h1m1 0h1m1 0h1m1 0h2m1 0h1m1 0h2m1 0h1m2 0h1m3 0h1M4 66.5h1m1 0h3m1 0h1m1 0h2m8 0h1m1 0h2m3 0h2m2 0h3m1 0h2m5 0h1m1 0h2m1 0h1m1 0h1m1 0h5m1 0h1m4 0h4M4 67.5h1m5 0h1m3 0h4m4 0h1m1 0h2m3 0h1m2 0h9m1 0h4m2 0h3m2 0h8m2 0h2m2 0h1M4 68.5h7m3 0h1m2 0h1m1 0h2m3 0h1m2 0h2m1 0h1m1 0h3m1 0h1m1 0h1m1 0h1m2 0h1m2 0h2m3 0h3m1 0h1m2 0h1m2 0h3m1 0h2"/></svg>

    <rect x="220.93150684931507" y="220.93150684931507" width="70.13698630136986" height="70.13698630136986" fill="black" stroke="white" stroke-width="7.513698630136986"/>
    <svg x="220.93150684931507" y="220.93150684931507" width="70.13698630136986" height="70.13698630136986" viewBox="0 0 116 116" fill="none" xmlns="http://www.w3.org/2000/svg">
      <path d="M63.9114 35.4964L52.1135 35.4964L30.6671 76.3932L39.9023 81.2706L58.0329 46.7391L76.1169 81.2829L85.333 76.3847L63.9114 35.4964Z" fill="white"/>
    </svg>
  </svg>